<svg xmlns="http://www.w3.org/2000/svg" width="174.005" height="19.989" viewBox="0 0 174.005 19.989">
  <path id="Shape_9" data-name="Shape 9" d="M1176.945,527.87c-.11-1.258-.18-2.012-.18-2.262a13,13,0,0,1,.27-2.479c.169-.916.428-2.068.8-3.453s.559-2.2.618-2.44a4.563,4.563,0,0,1-.379-2.029,3.157,3.157,0,0,1,.618-1.876,1.888,1.888,0,0,1,1.587-.877,1.4,1.4,0,0,1,1.138.488,1.862,1.862,0,0,1,.409,1.231,7.692,7.692,0,0,1-.528,2.3,7.386,7.386,0,0,0-.529,2.246,1.636,1.636,0,0,0,.539,1.255,1.847,1.847,0,0,0,1.307.5,2.576,2.576,0,0,0,1.228-.3,2.78,2.78,0,0,0,.938-.814,6.87,6.87,0,0,0,1.128-2.471,12.325,12.325,0,0,0,.239-1.334,10.3,10.3,0,0,0,.08-1.2,4.088,4.088,0,0,0-1.318-3.238,4.981,4.981,0,0,0-3.423-1.157,5.515,5.515,0,0,0-4,1.556,5.237,5.237,0,0,0-1.617,3.947,3.5,3.5,0,0,0,.16,1.022,3.414,3.414,0,0,0,.319.781c.12.19.229.375.32.546a.97.97,0,0,1,.159.367,2.943,2.943,0,0,1-.18.878q-.18.541-.448.541a1.984,1.984,0,0,1-.2-.039,2.446,2.446,0,0,1-1.088-.671,3.64,3.64,0,0,1-.728-1.135,7.4,7.4,0,0,1-.389-1.3,5.534,5.534,0,0,1-.15-1.282,6.648,6.648,0,0,1,.449-2.443,6.334,6.334,0,0,1,1.238-2,8.643,8.643,0,0,1,1.826-1.476,8.3,8.3,0,0,1,2.225-.938A9.483,9.483,0,0,1,1181.8,508a7.912,7.912,0,0,1,3.523.8,6.671,6.671,0,0,1,2.654,2.327,6.065,6.065,0,0,1,1.018,3.447,10.629,10.629,0,0,1-.229,2.256,8.948,8.948,0,0,1-.719,2.125,7.243,7.243,0,0,1-1.2,1.8,5.223,5.223,0,0,1-1.736,1.237,5.513,5.513,0,0,1-2.275.464,3.72,3.72,0,0,1-1.616-.385,2.4,2.4,0,0,1-1.147-1.057c-.08.311-.19.764-.339,1.354s-.239.968-.279,1.14-.13.457-.249.852a5.289,5.289,0,0,1-.31.854l-.379.75a10.62,10.62,0,0,1-.549.931c-.2.291-.449.638-.749,1.039l-.169.058Zm-159.476.12v-9.38h-2.475v-3.377h2.475v-2.885c0-2.265,1.466-4.347,4.829-4.347a20.482,20.482,0,0,1,2.374.13l-.079,3.154s-1.028-.01-2.146-.01c-1.218,0-1.417.561-1.417,1.492v2.466h3.661l-.159,3.377h-3.5v9.38Zm109.777,0c-1.307,0-2.6.012-3.911-.061a5.26,5.26,0,0,1-5.508-5.514c-.07-1.308-.059-2.609-.059-3.919s-.011-2.609.059-3.919a5.26,5.26,0,0,1,5.508-5.514c1.307-.073,2.6-.06,3.911-.06s2.6-.013,3.911.06a5.259,5.259,0,0,1,5.507,5.514c.07,1.309.06,2.607.06,3.919s.01,2.611-.06,3.919a5.259,5.259,0,0,1-5.507,5.514c-.99.055-1.974.062-2.96.062Zm-4.869-9.494a4.864,4.864,0,1,0,4.869-4.872A4.864,4.864,0,0,0,1122.377,518.495Zm8.79-5.071a1.136,1.136,0,0,0,1.138,1.138,1.148,1.148,0,0,0,.438-.086,1.16,1.16,0,0,0,.37-.247,1.089,1.089,0,0,0,.239-.368,1.11,1.11,0,0,0,.09-.436,1.138,1.138,0,0,0-2.275,0ZM1063.885,524.4a8.344,8.344,0,0,0,.988.051,8.185,8.185,0,0,0,5.079-1.751,4.1,4.1,0,0,1-3.821-2.842,5.28,5.28,0,0,0,.768.063,4.226,4.226,0,0,0,1.078-.14,4.1,4.1,0,0,1-3.282-4.02v-.051a4.15,4.15,0,0,0,1.855.522,4.105,4.105,0,0,1-1.266-5.482,11.619,11.619,0,0,0,8.431,4.288,4.866,4.866,0,0,1-.1-.94,4.086,4.086,0,0,1,7.074-2.8,8.016,8.016,0,0,0,2.594-.991,4.038,4.038,0,0,1-1.8,2.259,8.277,8.277,0,0,0,2.354-.635,8.834,8.834,0,0,1-2.056,2.119,4.617,4.617,0,0,1,.021.534,11.643,11.643,0,0,1-17.921,9.82Zm60.2-5.906a3.163,3.163,0,1,1,3.163,3.166A3.169,3.169,0,0,1,1124.082,518.495Z" transform="translate(-1014.994 -508.001)" fill="#a1c7ce"/>
</svg>
